{"accessors" : [{"bufferView" : 0, "byteOffset" : 0, "componentType" : 5123, "count" : 63168, "type" : "SCALAR", "max" : [52194], "min" : [0]}, {"bufferView" : 1, "byteOffset" : 0, "componentType" : 5126, "count" : 52195, "type" : "VEC3", "max" : [42.666664123535156, 9.945093154907227, 5], "min" : [-44.44444274902344, -7.48675537109375, -5], "name" : "POSITION"}, {"bufferView" : 1, "byteOffset" : 12, "componentType" : 5126, "count" : 52195, "type" : "VEC3", "max" : [0, 1, 0], "min" : [0, 1, 0], "name" : "NORMAL"}], "asset" : {"generator" : "Aspose.3D 23.7.0", "version" : "2.0"}, "buffers" : [{"uri" : "data:application/octet-stream;base64,", "byteLength" : 1642376}], "bufferViews" : [{"buffer" : 0, "byteOffset" : 0, "byteLength" : 126336, "target" : 34963}, {"buffer" : 0, "byteOffset" : 126340, "byteLength" : 1516032, "byteStride" : 24, "target" : 34962}], "meshes" : [{"primitives" : [{"attributes" : {"POSITION" : 1, "NORMAL" : 2}, "indices" : 0, "mode" : 4}], "name" : ""}], "nodes" : [{"mesh" : 0, "name" : ""}], "scene" : 0, "scenes" : [{"nodes" : [0]}]}